<?xml version="1.0" standalone="no"?>
<!DOCTYPE svg PUBLIC "-//W3C//DTD SVG 20010904//EN"
 "http://www.w3.org/TR/2001/REC-SVG-20010904/DTD/svg10.dtd">
<svg version="1.0" xmlns="http://www.w3.org/2000/svg"
 width="600.000000pt" height="600.000000pt" viewBox="0 0 600.000000 600.000000"
 preserveAspectRatio="xMidYMid meet">
<metadata>
Created by potrace 1.11, written by Peter Selinger 2001-2013
</metadata>
<g transform="translate(0.000000,600.000000) scale(0.100000,-0.100000)"
fill="#000000" stroke="none">
<path d="M2840 5994 c-374 -32 -652 -94 -945 -211 -392 -156 -706 -364 -1010
-668 -483 -483 -771 -1071 -861 -1762 -23 -175 -23 -541 0 -716 54 -417 187
-812 387 -1154 220 -375 540 -719 899 -965 394 -270 852 -443 1331 -503 166
-20 562 -20 728 0 401 50 806 186 1148 386 375 220 719 540 965 899 270 394
443 852 503 1331 20 166 20 562 0 728 -50 401 -186 806 -386 1148 -220 375
-540 719 -899 965 -394 271 -851 443 -1331 503 -122 15 -441 27 -529 19z
m-872 -1785 c186 -20 309 -77 420 -194 109 -114 173 -275 201 -500 7 -59 11
-372 11 -897 l0 -808 -315 0 -315 0 0 753 c0 413 -4 789 -10 834 -22 197 -112
282 -316 300 -176 15 -337 -54 -421 -181 l-30 -45 5 -830 5 -831 -322 0 -321
0 0 1180 0 1180 299 0 299 0 7 -130 c4 -71 9 -130 11 -130 2 0 22 20 45 45
127 137 318 231 518 255 98 11 122 11 229 -1z m1862 1 c206 -26 396 -100 531
-208 157 -124 241 -279 264 -484 l6 -58 -319 0 -319 0 -6 49 c-11 92 -69 176
-148 217 -103 51 -288 53 -395 3 -80 -38 -144 -134 -144 -216 0 -42 23 -96 56
-128 67 -67 155 -100 429 -160 499 -109 727 -253 815 -514 61 -183 38 -399
-61 -552 -132 -203 -393 -342 -720 -380 -133 -15 -355 -6 -469 20 -319 73
-559 250 -671 496 -29 66 -63 208 -57 247 l3 23 296 3 297 2 6 -37 c22 -126
84 -211 189 -262 148 -72 387 -64 509 17 74 48 114 157 88 237 -36 109 -148
167 -465 239 -269 62 -424 120 -561 211 -158 105 -248 235 -281 405 -29 147 8
327 94 458 131 198 372 334 658 372 90 11 279 11 375 0z m1411 -1769 c126 -48
200 -153 207 -295 3 -66 0 -92 -19 -141 -30 -80 -103 -154 -184 -185 -84 -32
-215 -33 -300 0 -81 30 -165 115 -190 190 -22 67 -22 173 0 239 30 91 128 178
234 208 63 18 183 10 252 -16z"/>
</g>
</svg>
